<?xml version="1.0" encoding="utf-8"?>
<!-- Generator: Adobe Illustrator 24.2.1, SVG Export Plug-In . SVG Version: 6.00 Build 0)  -->
<svg version="1.1" id="katman_1" xmlns="http://www.w3.org/2000/svg" xmlns:xlink="http://www.w3.org/1999/xlink" x="0px" y="0px"
	 viewBox="0 0 39.7 39.7" style="enable-background:new 0 0 39.7 39.7;" xml:space="preserve">
<style type="text/css">
	.st0{fill-rule:evenodd;clip-rule:evenodd;fill:#80407A;}
</style>
<path id="Dashboard" class="st0" d="M19.8,0.8C9.3,0.7,0.7,9.1,0.6,19.7C0.5,30.2,9,38.8,19.5,38.9C30,39,38.6,30.5,38.7,20
	c0-0.1,0-0.1,0-0.2C38.7,9.4,30.3,0.9,19.8,0.8z M32.7,30.2c0-0.2-0.1-0.4-0.3-0.5l-1.1-1.1c-0.5-0.5-1.2-0.5-1.6,0c0,0,0,0,0,0
	c-0.5,0.5-0.5,1.2,0,1.7l1.1,1.1c0.2,0.2,0.4,0.3,0.6,0.3c-6.4,6.4-16.7,6.4-23.1,0c0,0,0,0,0,0c0.3,0,0.5-0.1,0.7-0.3l1.1-1.1
	c0.2-0.2,0.3-0.5,0.3-0.8c0-0.3-0.1-0.6-0.3-0.8c-0.5-0.5-1.2-0.5-1.7,0c0,0,0,0,0,0l-1.1,1.1c-0.2,0.2-0.3,0.4-0.3,0.6
	c-2.1-2.7-3.4-5.9-3.6-9.3h2.3c0.7,0,1.2-0.5,1.2-1.2c0-0.6-0.5-1.2-1.2-1.2H3.4c0.2-3.6,1.6-7,4-9.7l1,1c0.5,0.5,1.2,0.5,1.7,0
	c0.5-0.5,0.5-1.2,0-1.7l-1-1c2.7-2.4,6-3.8,9.6-4v2.3c0,0.7,0.5,1.2,1.1,1.2c0.7,0,1.2-0.5,1.2-1.1c0,0,0,0,0-0.1V3.3
	c8.2,0.6,14.7,7.2,15.2,15.4H34c-0.7,0-1.2,0.5-1.2,1.2c0,0.6,0.5,1.2,1.2,1.2h2.3C36,24.4,34.8,27.6,32.7,30.2L32.7,30.2z
	 M27.2,10.8l-5.8,7.1c-0.5-0.2-1-0.3-1.5-0.4c-2,0-3.6,1.5-3.7,3.5c0,2,1.5,3.6,3.5,3.7c2,0,3.6-1.5,3.7-3.5c0-0.6-0.1-1.1-0.4-1.6
	c0,0,0.1,0,0.1-0.1l5.9-7.1c0.4-0.5,0.3-1.2-0.2-1.7C28.3,10.2,27.6,10.3,27.2,10.8C27.2,10.7,27.2,10.8,27.2,10.8z M21,22.2h-2.4
	v-2.4H21V22.2z"/>
</svg>
