<?xml version="1.0" encoding="utf-8"?>
<!-- Generator: Adobe Illustrator 24.2.1, SVG Export Plug-In . SVG Version: 6.00 Build 0)  -->
<svg version="1.1" id="katman_1" xmlns="http://www.w3.org/2000/svg" xmlns:xlink="http://www.w3.org/1999/xlink" x="0px" y="0px"
	 viewBox="0 0 39.7 39.7" style="enable-background:new 0 0 39.7 39.7;" xml:space="preserve">
<style type="text/css">
	.st0{fill-rule:evenodd;clip-rule:evenodd;fill:#80407A;}
</style>
<path id="Timer" class="st0" d="M33.6,7.6c0.1-0.1,0.2-0.3,0.3-0.4l1.6,1.6c0.5,0.5,1.2,0.5,1.7,0s0.5-1.2,0-1.7l-4.7-4.8
	c-0.4-0.5-1.2-0.5-1.6,0l0,0c-0.5,0.5-0.5,1.2,0,1.7l1.6,1.6c-0.2,0.1-0.3,0.1-0.4,0.3L31,7c-3-2.2-6.4-3.5-10-3.7V2
	c0-0.7-0.5-1.2-1.2-1.2S18.6,1.4,18.6,2v1.3C8.9,3.8,1.4,12.3,2,22.1s9,17.2,18.8,16.7c9.8-0.6,17.2-9,16.7-18.8
	c-0.3-4.2-2-8.2-4.9-11.2L33.6,7.6z M19.8,36.5c-8.5,0.1-15.5-6.8-15.6-15.3C4.1,12.6,11,5.7,19.5,5.6S35,12.4,35.1,20.9
	c0,0.1,0,0.1,0,0.2C35.2,29.5,28.3,36.4,19.8,36.5z M21,17.7V9.1C21,8.5,20.5,8,19.8,8s-1.2,0.5-1.2,1.2v8.6
	c-1.8,0.6-2.8,2.7-2.2,4.5c0.6,1.8,2.7,2.8,4.5,2.2c1.8-0.6,2.8-2.7,2.2-4.5C22.8,18.8,22,18,21,17.7L21,17.7z M21,22.2h-2.4v-2.4
	H21V22.2z"/>
</svg>
